# xmcd CD database file
#
# Track frame offsets:
#	150
#	900
#	1650
#	2400
#	3150
#	3900
#	4650
#	5400
#	6150
#	6900
#	7650
#	8400
#	287360
#
# Disc length: 4440 seconds
#
# Revision: 0
# Processed by: cddbd v1.5.1PL0 Copyright (c) Steve Scherf et al.
# Submitted via: CDex 1.51
#
DISCID=5711560d
DTITLE=EVERY LITTLE THING - ACOUSTIC LATTE
DYEAR=2004
DGENRE=Japanese Pop
TTITLE0=FOREVER YOURS
TTITLE1=water(s)
TTITLE2=nostalgia
TTITLE3=愛のカケラ
TTITLE4=Time　goes　ｂｙ
TTITLE5=ささやかな祈り
TTITLE6=しあわせの風景
TTITLE7=ｆragile
TTITLE8=鮮やかなもの
TTITLE9=NECESSARY
TTITLE10=愛の謳
TTITLE11=Over And Over
TTITLE12=トラック　１３
EXTD=YEAR: 2004
EXTT0=
EXTT1=
EXTT2=
EXTT3=
EXTT4=
EXTT5=
EXTT6=
EXTT7=
EXTT8=
EXTT9=
EXTT10=
EXTT11=
EXTT12=
PLAYORDER=
